<svg width="20" height="16" viewBox="0 0 20 16" fill="none" xmlns="http://www.w3.org/2000/svg">
<path d="M17.7778 13.4445V15.7778H2.22224V13.4445H17.7778ZM17.7778 1.77778C16.6111 1.77778 15.7074 3.08834 16.5349 4.26201C16.951 4.85234 16.8507 5.20778 16.5699 5.62234C15.9749 6.4989 15.1139 7.22223 13.8889 7.22223C11.9281 7.22223 10.8914 5.60212 10.6759 4.22934C10.6012 3.75178 10.5592 3.39401 11.015 2.95067C11.3277 2.64734 11.5556 2.24756 11.5556 1.77778C11.5556 0.919118 10.8587 0.222229 10 0.222229C9.14135 0.222229 8.44447 0.919118 8.44447 1.77778C8.44447 2.24756 8.67235 2.64734 8.98502 2.95067C9.4408 3.39401 9.39802 3.75178 9.32413 4.22934C9.10869 5.60212 8.07191 7.22223 6.11113 7.22223C4.88613 7.22223 4.02513 6.4989 3.43013 5.62156C3.14858 5.20779 3.04824 4.85234 3.46513 4.26201C4.29269 3.08834 3.38891 1.77778 2.22224 1.77778C1.36358 1.77778 0.666687 2.47467 0.666687 3.33334C0.666687 3.95323 1.02758 4.49612 1.55646 4.73956C2.19813 5.03512 2.22224 5.7639 2.22224 6.42812V11.8889H17.7778V6.42812C17.7778 5.7639 17.8019 5.03434 18.4436 4.73956C18.9725 4.49612 19.3334 3.95323 19.3334 3.33334C19.3334 2.47467 18.6365 1.77778 17.7778 1.77778Z" fill="#F4A403"/>
</svg>
