<svg width="20" height="19" viewBox="0 0 20 19" fill="none" xmlns="http://www.w3.org/2000/svg">
<path d="M9.10326 0.816986C9.47008 0.0737406 10.5299 0.0737401 10.8967 0.816986L13.0736 5.22784C13.2193 5.52298 13.5008 5.72755 13.8266 5.77488L18.6942 6.48219C19.5144 6.60138 19.842 7.60935 19.2484 8.18789L15.7262 11.6213C15.4905 11.851 15.3829 12.182 15.4386 12.5064L16.2701 17.3544C16.4102 18.1713 15.5527 18.7942 14.8191 18.4086L10.4653 16.1196C10.174 15.9665 9.82598 15.9665 9.53466 16.1196L5.18089 18.4086C4.44726 18.7942 3.58983 18.1713 3.72994 17.3544L4.56143 12.5064C4.61707 12.182 4.50952 11.851 4.27384 11.6213L0.751564 8.18789C0.158047 7.60935 0.485557 6.60138 1.30578 6.48219L6.17344 5.77488C6.49915 5.72755 6.78072 5.52298 6.92638 5.22784L9.10326 0.816986Z" fill="#F4A403"/>
</svg>
